IKResults EF3
version=1
nRows=26
nColumns=24
inDegrees=yes

Units are S.I. units (second, meters, Newtons, ...)
If the header above contains a line with 'inDegrees', this indicates whether rotational values are in degrees (yes) or radians (no).

endheader
time	pelvis_tilt	pelvis_list	pelvis_rotation	pelvis_tx	pelvis_ty	pelvis_tz	hip_flexion_r	hip_adduction_r	hip_rotation_r	knee_angle_r	ankle_angle_r	subtalar_angle_r	mtp_angle_r	hip_flexion_l	hip_adduction_l	hip_rotation_l	knee_angle_l	ankle_angle_l	subtalar_angle_l	mtp_angle_l	lumbar_extension	lumbar_bending	lumbar_rotation
      5.29000000	     -4.38775044	     -1.69550833	    -84.27945068	     -0.24941431	      0.95900926	     -1.12478520	     18.76206903	      8.30824179	      1.17231937	    -19.95352897	      3.18771533	    -16.41588233	      0.00000000	      8.49955856	     -4.86462456	     -0.50379960	    -67.90265874	    -10.99082963	    -18.03851678	      0.00000000	    -11.95595505	      7.06697935	      0.16934241
      5.30000000	     -4.22764681	     -1.82073526	    -84.54695716	     -0.25022156	      0.96132801	     -1.11111708	     17.50580024	      8.44803836	      1.85518014	    -19.72206222	      3.96151113	    -16.52531326	      0.00000000	     10.38876114	     -4.55349285	     -0.56556215	    -69.36724440	    -10.20805380	    -19.98305975	      0.00000000	    -12.23370062	      6.79820409	      0.73600985
      5.31000000	     -4.05059527	     -1.94559344	    -84.75829180	     -0.25092310	      0.96357692	     -1.09739979	     16.24567443	      8.49744886	      2.25819927	    -19.48701420	      4.69487244	    -16.49580965	      0.00000000	     12.24492707	     -4.18451332	     -0.55794837	    -70.52243979	     -9.53434222	    -21.79084490	      0.00000000	    -12.49872217	      6.51326928	      1.19414693
      5.32000000	     -3.84779365	     -2.09897910	    -84.94460500	     -0.25148762	      0.96576980	     -1.08356612	     14.90439315	      8.44351195	      2.35009233	    -19.16737642	      5.49117974	    -16.15422254	      0.00000000	     14.03489565	     -3.77773467	     -0.52897324	    -71.38859315	     -9.07867959	    -23.64017341	      0.00000000	    -12.76176302	      6.20980600	      1.62788543
      5.33000000	     -3.71837370	     -2.26097611	    -85.04854459	     -0.25215640	      0.96775284	     -1.06995436	     13.52446095	      8.43844587	      2.30057220	    -18.72093939	      6.33620013	    -15.55576572	      0.00000000	     15.78961692	     -3.45220012	     -0.34457381	    -71.93526951	     -8.77554384	    -25.25707551	      0.00000000	    -13.00548282	      6.00243318	      1.91528669
      5.34000000	     -3.59501693	     -2.44206003	    -85.17877739	     -0.25274664	      0.96972068	     -1.05619744	     12.05615780	      8.44412089	      2.29950871	    -18.17171183	      6.40301985	    -15.52052527	      0.00000000	     17.44146982	     -3.14435305	     -0.18102215	    -72.08889215	     -8.75701432	    -25.34314036	      0.00000000	    -13.12069010	      5.80295885	      1.94316140
      5.35000000	     -3.42657389	     -2.65302786	    -85.33736943	     -0.25329927	      0.97158147	     -1.04239979	     10.62066909	      8.37039928	      2.09760107	    -17.76774415	      7.67635083	    -14.82250586	      0.00000000	     18.93523436	     -2.81126740	     -0.08845562	    -71.93197822	     -7.91719544	    -26.80491961	      0.00000000	    -13.52500558	      5.53092382	      2.51667952
      5.36000000	     -3.33605639	     -2.85289698	    -85.42320803	     -0.25375891	      0.97310930	     -1.02879784	      9.25794332	      8.37994980	      1.85660973	    -17.41937237	      8.92223008	    -13.47134933	      0.00000000	     20.42093022	     -2.54918619	      0.10693973	    -71.55961455	     -7.63637617	    -27.78494621	      0.00000000	    -13.79935003	      5.36474485	      2.75935075
      5.37000000	     -3.13282261	     -3.08551942	    -85.81574241	     -0.25454083	      0.97468161	     -1.01465402	      7.78219409	      8.36861464	      2.35363402	    -17.03823072	      9.02515322	    -13.41078146	      0.00000000	     21.59466753	     -2.30164584	     -0.06203785	    -70.71475607	     -7.58318271	    -27.83757302	      0.00000000	    -14.00412705	      4.95900658	      2.84127039
      5.38000000	     -2.89332623	     -3.32425084	    -86.16605579	     -0.25508917	      0.97589848	     -1.00063414	      6.33336242	      8.29402769	      2.87518852	    -16.68454547	      9.50323816	    -13.42054673	      0.00000000	     22.67688753	     -1.98792300	     -0.14456438	    -69.60752551	     -7.20568361	    -28.05742927	      0.00000000	    -14.39500216	      4.50570475	      3.18609878
      5.39000000	     -2.80595749	     -3.48834492	    -86.46317212	     -0.25573275	      0.97651183	     -0.98709442	      5.02073707	      8.45608873	      3.88872192	    -16.39048059	     10.71669820	    -13.82946308	      0.00000000	     23.87979437	     -1.86253777	     -0.08989321	    -68.36873302	     -6.26218934	    -28.42038209	      0.00000000	    -14.54698752	      4.40464011	      3.94834627
      5.40000000	     -2.58282028	     -3.69031718	    -86.92303417	     -0.25636427	      0.97701511	     -0.97323053	      3.67462453	      8.40309177	      4.73941016	    -16.14758286	     11.17595093	    -13.99238228	      0.00000000	     24.82291786	     -1.64123183	     -0.23343423	    -66.76469402	     -5.84170417	    -28.50192921	      0.00000000	    -14.81777361	      3.94060625	      4.29635238
      5.41000000	     -2.40472767	     -3.80461689	    -87.46333691	     -0.25703218	      0.97707198	     -0.95952875	      2.43089117	      8.40132618	      5.97720700	    -15.98280750	     12.16433426	    -14.57113004	      0.00000000	     25.73717358	     -1.50669977	     -0.40360245	    -64.93006709	     -4.96894803	    -28.68737282	      0.00000000	    -14.97795283	      3.72642748	      5.08151969
      5.42000000	     -2.25920176	     -3.94103829	    -88.04397469	     -0.25771697	      0.97695226	     -0.94579977	      1.17486383	      8.36685790	      6.89774504	    -15.69162031	     12.53788557	    -14.80109957	      0.00000000	     26.57417035	     -1.46305878	     -0.64563209	    -62.80419253	     -4.63166708	    -28.79507181	      0.00000000	    -15.17495713	      3.32114553	      5.44977098
      5.43000000	     -2.14534983	     -4.05889661	    -88.71362833	     -0.25849963	      0.97650876	     -0.93196904	     -0.07447193	      8.35391925	      8.08636818	    -15.50919545	     13.50040565	    -15.42903352	      0.00000000	     27.24098329	     -1.47807651	     -0.87390749	    -60.49107580	     -3.70262771	    -29.25209828	      0.00000000	    -15.32469016	      3.17206251	      6.42049059
      5.44000000	     -2.01409403	     -4.21994625	    -89.45796847	     -0.25914542	      0.97607522	     -0.91796001	     -1.39769996	      8.21724326	      9.08612374	    -15.22977261	     14.09616798	    -15.74778126	      0.00000000	     27.74161024	     -1.54150962	     -1.25626765	    -57.90520525	     -3.15812495	    -29.72187079	      0.00000000	    -15.52200837	      2.88051013	      7.24521778
      5.45000000	     -2.06931581	     -4.30240155	    -90.11385105	     -0.25995043	      0.97515376	     -0.90442258	     -2.51750315	      8.26363662	      9.81059571	    -15.10840564	     14.65725864	    -15.89721288	      0.00000000	     28.32313866	     -1.80503918	     -1.44521628	    -55.27098247	     -2.71996907	    -30.31175900	      0.00000000	    -15.66022589	      2.75399674	      8.06298781
      5.46000000	     -2.12998972	     -4.43717041	    -90.74628337	     -0.26058069	      0.97416520	     -0.89058149	     -3.72474062	      8.25476115	     10.42297798	    -14.96917877	     14.99251304	    -15.89175861	      0.00000000	     28.72939403	     -2.07952345	     -1.60474298	    -52.51521918	     -2.46671340	    -30.64920587	      0.00000000	    -15.93563374	      2.55457784	      8.49822600
      5.47000000	     -2.25713349	     -4.47300412	    -91.49979379	     -0.26136326	      0.97277975	     -0.87722856	     -4.74888532	      8.30644006	     11.11343614	    -14.91573186	     15.92471704	    -15.81182317	      0.00000000	     29.15791636	     -2.48755855	     -1.79817678	    -49.59685699	     -2.02721250	    -31.36783289	      0.00000000	    -15.94105867	      2.58771244	      9.77517358
      5.48000000	     -2.34313454	     -4.50785185	    -92.18800688	     -0.26182059	      0.97122997	     -0.86358632	     -5.82522996	      8.25449204	     11.73657374	    -14.81140431	     15.99372488	    -15.77937745	      0.00000000	     29.51511981	     -2.84781453	     -2.01895539	    -46.65430326	     -2.00897193	    -31.39523204	      0.00000000	    -15.93738676	      2.59604449	      9.84916710
      5.49000000	     -2.45595417	     -4.51458470	    -92.80717492	     -0.26213507	      0.96951456	     -0.84966140	     -6.91216359	      8.22835259	     12.37490782	    -14.64305849	     17.24921891	    -15.63458926	      0.00000000	     29.81710616	     -3.20962114	     -2.24849047	    -43.62527156	     -1.56054568	    -31.68175584	      0.00000000	    -16.09755388	      2.48477460	     11.33518886
      5.50000000	     -2.55006682	     -4.45826761	    -93.41611280	     -0.26236805	      0.96753087	     -0.83582196	     -7.88848899	      8.15214833	     12.93249844	    -14.53463311	     18.20020440	    -15.14540789	      0.00000000	     30.13738326	     -3.58244705	     -2.49620688	    -40.60630217	     -1.14503461	    -31.34056617	      0.00000000	    -16.08056987	      2.43476293	     12.22764427
      5.51000000	     -2.56939436	     -4.38907827	    -93.96698240	     -0.26231434	      0.96540781	     -0.82159560	     -8.87168165	      7.97067243	     13.41783810	    -14.42976033	     18.27438422	    -15.10349305	      0.00000000	     30.36466557	     -3.80555126	     -2.60737671	    -37.51498068	     -1.09997229	    -31.28155965	      0.00000000	    -15.95954040	      2.39461386	     12.28383809
      5.52000000	     -2.62507798	     -4.23242043	    -94.45288112	     -0.26231684	      0.96293183	     -0.80740966	     -9.69617765	      7.85175140	     13.83737924	    -14.43534014	     19.98461398	    -14.78634333	      0.00000000	     30.63442219	     -4.07453176	     -2.84913669	    -34.40383160	     -0.06163305	    -29.84803769	      0.00000000	    -15.82789482	      2.24726584	     13.77201239
      5.53000000	     -2.52211155	     -4.02855477	    -94.87938512	     -0.26206756	      0.96057162	     -0.79300809	    -10.43664999	      7.53865991	     14.05971950	    -14.49546390	     20.96733537	    -13.00558792	      0.00000000	     30.89355302	     -4.15569683	     -2.82162285	    -31.47365376	      2.17109239	    -25.28513298	      0.00000000	    -15.52688640	      1.99711449	     14.16076736
      5.54000000	     -2.43918499	     -3.84094684	    -95.26167279	     -0.26179497	      0.95797300	     -0.77849193	    -11.17096985	      7.23304123	     14.15028492	    -14.59487438	     21.95484375	    -13.06595480	      0.00000000	     31.09446373	     -4.22865136	     -2.96151122	    -28.61491019	      3.82707482	    -23.69233715	      0.00000000	    -15.35071105	      1.77695587	     14.64681073
